HIERARCHY
ROOT hip
{
  OFFSET 2.38671 860.565 -6.58267
  CHANNELS 6 Xposition Yposition Zposition Zrotation Xrotation Yrotation
  JOINT abdomen
  {
    OFFSET 0 -1.186 -1.50178
    CHANNELS 6 Xposition Yposition Zposition Zrotation Xrotation Yrotation
    JOINT abdomen2
    {
      OFFSET 0 9.964 0.21338
      CHANNELS 6 Xposition Yposition Zposition Zrotation Xrotation Yrotation
      JOINT chest
      {
        OFFSET 0 13.134 -3.25729
        CHANNELS 6 Xposition Yposition Zposition Zrotation Xrotation Yrotation
        JOINT neck
        {
          OFFSET 0 20.686 -1.69049
          CHANNELS 6 Xposition Yposition Zposition Zrotation Xrotation Yrotation
          JOINT head
          {
            OFFSET 0 7.23799 -0.12368
            CHANNELS 6 Xposition Yposition Zposition Zrotation Xrotation Yrotation
            End Site
            {
              OFFSET 0 10.017 2.38717
            }
          }
        }
        JOINT lCollar
        {
          OFFSET 1.70688 20.075 5.0056
          CHANNELS 6 Xposition Yposition Zposition Zrotation Xrotation Yrotation
          JOINT lShldr
          {
            OFFSET 13.6458 -0.047012 -4.84902
            CHANNELS 6 Xposition Yposition Zposition Zrotation Xrotation Yrotation
            JOINT lForeArm
            {
              OFFSET 28.3255 -0.975903 2.28883
              CHANNELS 6 Xposition Yposition Zposition Zrotation Xrotation Yrotation
              JOINT lHand
              {
                OFFSET 22.1583 -0.530035 10.8316
                CHANNELS 6 Xposition Yposition Zposition Zrotation Xrotation Yrotation
                JOINT lThumb1
                {
                  OFFSET 0.785995 0.111999 2.58168
                  CHANNELS 6 Xposition Yposition Zposition Zrotation Xrotation Yrotation
                  JOINT lThumb2
                  {
                    OFFSET 0.3601 -0.878005 4.2331
                    CHANNELS 6 Xposition Yposition Zposition Zrotation Xrotation Yrotation
                    End Site
                    {
                      OFFSET 1.81271 -1.21601 2.2227
                    }
                  }
                }
                JOINT lCarpal1
                {
                  OFFSET 0.9571 1.114 1.76948
                  CHANNELS 6 Xposition Yposition Zposition Zrotation Xrotation Yrotation
                  JOINT lIndex1
                  {
                    OFFSET 4.1246 0.487 4.1451
                    CHANNELS 6 Xposition Yposition Zposition Zrotation Xrotation Yrotation
                    JOINT lIndex2
                    {
                      OFFSET 3.40521 -1.45401 2.7682
                      CHANNELS 6 Xposition Yposition Zposition Zrotation Xrotation Yrotation
                      End Site
                      {
                        OFFSET 1.4531 -1.795 1.2713
                      }
                    }
                  }
                  JOINT lMid1
                  {
                    OFFSET 5.6954 0.209991 2.1184
                    CHANNELS 6 Xposition Yposition Zposition Zrotation Xrotation Yrotation
                    JOINT lMid2
                    {
                      OFFSET 3.9766 -1.53999 2.3863
                      CHANNELS 6 Xposition Yposition Zposition Zrotation Xrotation Yrotation
                      End Site
                      {
                        OFFSET 1.4042 -1.926 1.125
                      }
                    }
                  }
                }
                JOINT lCarpal2
                {
                  OFFSET 2.09559 0.65999 -0.38939
                  CHANNELS 6 Xposition Yposition Zposition Zrotation Xrotation Yrotation
                  JOINT lRing1
                  {
                    OFFSET 5.0395 -0.089997 2.49707
                    CHANNELS 6 Xposition Yposition Zposition Zrotation Xrotation Yrotation
                    JOINT lRing2
                    {
                      OFFSET 3.7921 -1.552 1.4806
                      CHANNELS 6 Xposition Yposition Zposition Zrotation Xrotation Yrotation
                      End Site
                      {
                        OFFSET 1.4655 -1.808 0.9609
                      }
                    }
                  }
                  JOINT lPinky1
                  {
                    OFFSET 4.9141 -1.269 0.35915
                    CHANNELS 6 Xposition Yposition Zposition Zrotation Xrotation Yrotation
                    JOINT lPinky2
                    {
                      OFFSET 3.1477 -1.685 0.84623
                      CHANNELS 6 Xposition Yposition Zposition Zrotation Xrotation Yrotation
                      End Site
                      {
                        OFFSET 0.805505 -1.58499 0.79549
                      }
                    }
                  }
                }
              }
            }
          }
        }
        JOINT rCollar
        {
          OFFSET -1.70688 20.075 5.0056
          CHANNELS 6 Xposition Yposition Zposition Zrotation Xrotation Yrotation
          JOINT rShldr
          {
            OFFSET -13.6458 -0.047012 -4.84902
            CHANNELS 6 Xposition Yposition Zposition Zrotation Xrotation Yrotation
            JOINT rForeArm
            {
              OFFSET -28.3255 -0.975903 2.28883
              CHANNELS 6 Xposition Yposition Zposition Zrotation Xrotation Yrotation
              JOINT rHand
              {
                OFFSET -22.1583 -0.530036 10.8316
                CHANNELS 6 Xposition Yposition Zposition Zrotation Xrotation Yrotation
                JOINT rThumb1
                {
                  OFFSET -0.785995 0.111999 2.58168
                  CHANNELS 6 Xposition Yposition Zposition Zrotation Xrotation Yrotation
                  JOINT rThumb2
                  {
                    OFFSET -0.3601 -0.878005 4.2331
                    CHANNELS 6 Xposition Yposition Zposition Zrotation Xrotation Yrotation
                    End Site
                    {
                      OFFSET -1.81271 -1.21601 2.2227
                    }
                  }
                }
                JOINT rCarpal1
                {
                  OFFSET -0.9571 1.114 1.76948
                  CHANNELS 6 Xposition Yposition Zposition Zrotation Xrotation Yrotation
                  JOINT rIndex1
                  {
                    OFFSET -4.1246 0.487 4.1451
                    CHANNELS 6 Xposition Yposition Zposition Zrotation Xrotation Yrotation
                    JOINT rIndex2
                    {
                      OFFSET -3.40521 -1.45401 2.7682
                      CHANNELS 6 Xposition Yposition Zposition Zrotation Xrotation Yrotation
                      End Site
                      {
                        OFFSET -1.4531 -1.795 1.2713
                      }
                    }
                  }
                  JOINT rMid1
                  {
                    OFFSET -5.6954 0.209991 2.1184
                    CHANNELS 6 Xposition Yposition Zposition Zrotation Xrotation Yrotation
                    JOINT rMid2
                    {
                      OFFSET -3.9766 -1.53999 2.3863
                      CHANNELS 6 Xposition Yposition Zposition Zrotation Xrotation Yrotation
                      End Site
                      {
                        OFFSET -1.4042 -1.926 1.125
                      }
                    }
                  }
                }
                JOINT rCarpal2
                {
                  OFFSET -2.09559 0.65999 -0.38939
                  CHANNELS 6 Xposition Yposition Zposition Zrotation Xrotation Yrotation
                  JOINT rRing1
                  {
                    OFFSET -5.0395 -0.089997 2.49707
                    CHANNELS 6 Xposition Yposition Zposition Zrotation Xrotation Yrotation
                    JOINT rRing2
                    {
                      OFFSET -3.7921 -1.552 1.4806
                      CHANNELS 6 Xposition Yposition Zposition Zrotation Xrotation Yrotation
                      End Site
                      {
                        OFFSET -1.4655 -1.808 0.9609
                      }
                    }
                  }
                  JOINT rPinky1
                  {
                    OFFSET -4.9141 -1.269 0.35915
                    CHANNELS 6 Xposition Yposition Zposition Zrotation Xrotation Yrotation
                    JOINT rPinky2
                    {
                      OFFSET -3.1477 -1.685 0.84623
                      CHANNELS 6 Xposition Yposition Zposition Zrotation Xrotation Yrotation
                      End Site
                      {
                        OFFSET -0.805505 -1.58499 0.79549
                      }
                    }
                  }
                }
              }
            }
          }
        }
      }
    }
  }
  JOINT lThigh
  {
    OFFSET 8.367 -8.2066 0.59823
    CHANNELS 6 Xposition Yposition Zposition Zrotation Xrotation Yrotation
    JOINT lShin
    {
      OFFSET 2.19232 -43.463 -0.493181
      CHANNELS 6 Xposition Yposition Zposition Zrotation Xrotation Yrotation
      JOINT lFoot
      {
        OFFSET 0.733257 -45.8593 -2.64513
        CHANNELS 6 Xposition Yposition Zposition Zrotation Xrotation Yrotation
        End Site
        {
          OFFSET 2.6618 -4.26993 12.3931
        }
      }
    }
  }
  JOINT rThigh
  {
    OFFSET -8.367 -8.2066 0.59823
    CHANNELS 6 Xposition Yposition Zposition Zrotation Xrotation Yrotation
    JOINT rShin
    {
      OFFSET -2.19233 -43.463 -0.493108
      CHANNELS 6 Xposition Yposition Zposition Zrotation Xrotation Yrotation
      JOINT rFoot
      {
        OFFSET -0.733256 -45.8593 -2.64514
        CHANNELS 6 Xposition Yposition Zposition Zrotation Xrotation Yrotation
        End Site
        {
          OFFSET -2.6618 -4.26993 12.3931
        }
      }
    }
  }
}
MOTION
Frames:	4
Frame Time:	0.0333333
9.6545 106.29 -5.00041 -1.03487 -0.227815 -27.4476 8.88179e-016 -1.186 -1.50178 0.23549 -2.14386 -0.0943113 0 9.964 0.21338 0.212028 -1.78797 -0.0795586 0 13.134 -3.25729 0.207868 -1.78679 -0.114612 2.66454e-015 20.686 -1.69049 1.27083 1.24506 5.2784 1.77636e-015 7.23799 -0.12368 4.25117 -0.44809 4.01924 1.70688 20.075 5.0056 11.2879 4.81114 6.90449 13.6458 -0.047012 -4.84902 -77.5259 -0.204481 14.8374 28.3255 -0.975903 2.28883 0.159343 9.88085 -15.16 22.1583 -0.530035 10.8316 -3.69096 15.9331 2.15533 0.785995 0.111999 2.58168 -7.95139e-016 9.54166e-015 -3.18055e-015 0.3601 -0.878005 4.2331 0 6.36111e-015 -0 0.9571 1.114 1.76948 -7.95139e-016 9.54166e-015 -3.18055e-015 4.1246 0.487 4.1451 0 6.36111e-015 -0 3.40521 -1.45401 2.7682 -3.97569e-015 6.36111e-015 -3.97569e-015 5.6954 0.209991 2.1184 0 6.36111e-015 -0 3.9766 -1.53999 2.3863 -3.97569e-015 6.36111e-015 -3.97569e-015 2.09559 0.65999 -0.38939 -7.95139e-016 9.54166e-015 -3.18055e-015 5.0395 -0.089997 2.49707 0 6.36111e-015 -0 3.7921 -1.552 1.4806 -3.97569e-015 6.36111e-015 -3.97569e-015 4.9141 -1.269 0.35915 0 6.36111e-015 -0 3.1477 -1.685 0.84623 -3.97569e-015 6.36111e-015 -3.97569e-015 -1.70688 20.075 5.0056 -3.96631 0.169457 -13.4208 -13.6458 -0.047012 -4.84902 73.441 16.7535 -19.9534 -28.3255 -0.975903 2.28883 1.65801 5.77502 21.2143 -22.1583 -0.530036 10.8316 6.39129 -12.1866 15.0188 -0.785995 0.111999 2.58168 2.38542e-015 0 4.77083e-015 -0.3601 -0.878005 4.2331 0 0 -1.59028e-015 -0.9571 1.114 1.76948 2.38542e-015 0 4.77083e-015 -4.1246 0.487 4.1451 0 0 -1.59028e-015 -3.40521 -1.45401 2.7682 3.18055e-015 6.36111e-015 1.59028e-015 -5.6954 0.209991 2.1184 0 0 -1.59028e-015 -3.9766 -1.53999 2.3863 3.18055e-015 6.36111e-015 1.59028e-015 -2.09559 0.65999 -0.38939 2.38542e-015 0 4.77083e-015 -5.0395 -0.089997 2.49707 0 0 -1.59028e-015 -3.7921 -1.552 1.4806 3.18055e-015 6.36111e-015 1.59028e-015 -4.9141 -1.269 0.35915 0 0 -1.59028e-015 -3.1477 -1.685 0.84623 3.18055e-015 6.36111e-015 1.59028e-015 8.367 -8.2066 0.59823 10.1183 0.152207 1.11086 2.19232 -43.463 -0.493181 2.76473 0.790074 -2.04306 0.733257 -45.8593 -2.64513 -5.44801 -0.0688823 4.13687 -8.367 -8.2066 0.59823 -2.47372 5.26085 -0.420311 -2.19233 -43.463 -0.493108 -3.81042 2.18032 0.554455 -0.733256 -45.8593 -2.64514 -0.497766 -7.79942 -0.857363 
9.63185 106.336 -4.99078 -1.02242 -0.220304 -27.4572 0 -1.186 -1.50178 0.241371 -2.11292 -0.113148 1.77636e-015 9.964 0.21338 0.225528 -1.77614 -0.0793118 1.77636e-015 13.134 -3.25729 0.22116 -1.77488 -0.11461 -8.88179e-016 20.686 -1.69049 1.30068 1.22819 5.4315 0 7.23799 -0.12368 4.27413 -0.51353 4.19774 1.70688 20.075 5.0056 11.322 4.81058 6.95932 13.6458 -0.047012 -4.84902 -77.6528 -0.375156 14.5994 28.3255 -0.975903 2.28883 0.188518 9.87879 -14.6863 22.1583 -0.530035 10.8316 -3.54787 16.4625 2.11436 0.785995 0.111999 2.58168 5.56597e-015 6.36111e-015 -0 0.3601 -0.878005 4.2331 2.38542e-015 0 1.59028e-015 0.9571 1.114 1.76948 5.56597e-015 6.36111e-015 -0 4.1246 0.487 4.1451 2.38542e-015 0 1.59028e-015 3.40521 -1.45401 2.7682 -4.77083e-015 -3.18055e-015 -7.95139e-016 5.6954 0.209991 2.1184 2.38542e-015 0 1.59028e-015 3.9766 -1.53999 2.3863 -4.77083e-015 -3.18055e-015 -7.95139e-016 2.09559 0.65999 -0.38939 5.56597e-015 6.36111e-015 -0 5.0395 -0.089997 2.49707 2.38542e-015 0 1.59028e-015 3.7921 -1.552 1.4806 -4.77083e-015 -3.18055e-015 -7.95139e-016 4.9141 -1.269 0.35915 2.38542e-015 0 1.59028e-015 3.1477 -1.685 0.84623 -4.77083e-015 -3.18055e-015 -7.95139e-016 -1.70688 20.075 5.0056 -3.94552 0.179688 -13.3824 -13.6458 -0.047012 -4.84902 73.5071 16.6196 -19.8087 -28.3255 -0.975903 2.28883 1.62393 5.75458 20.9727 -22.1583 -0.530036 10.8316 6.00591 -12.1658 15.2925 -0.785995 0.111999 2.58168 -3.97569e-015 6.36111e-015 -3.18055e-015 -0.3601 -0.878005 4.2331 -1.59028e-015 3.18055e-015 3.18055e-015 -0.9571 1.114 1.76948 -3.97569e-015 6.36111e-015 -3.18055e-015 -4.1246 0.487 4.1451 -1.59028e-015 3.18055e-015 3.18055e-015 -3.40521 -1.45401 2.7682 7.95139e-016 3.18055e-015 4.77083e-015 -5.6954 0.209991 2.1184 -1.59028e-015 3.18055e-015 3.18055e-015 -3.9766 -1.53999 2.3863 7.95139e-016 3.18055e-015 4.77083e-015 -2.09559 0.65999 -0.38939 -3.97569e-015 6.36111e-015 -3.18055e-015 -5.0395 -0.089997 2.49707 -1.59028e-015 3.18055e-015 3.18055e-015 -3.7921 -1.552 1.4806 7.95139e-016 3.18055e-015 4.77083e-015 -4.9141 -1.269 0.35915 -1.59028e-015 3.18055e-015 3.18055e-015 -3.1477 -1.685 0.84623 7.95139e-016 3.18055e-015 4.77083e-015 8.367 -8.2066 0.59823 10.2169 0.187177 0.842817 2.19232 -43.463 -0.493181 2.54743 0.758697 -1.86023 0.733257 -45.8593 -2.64513 -5.34098 -0.0694058 4.23132 -8.367 -8.2066 0.59823 -2.58067 5.43962 -0.373091 -2.19233 -43.463 -0.493108 -3.59005 1.82686 0.487501 -0.733256 -45.8593 -2.64514 -0.611462 -7.63277 -0.834804 
9.61063 106.372 -4.9811 -1.00996 -0.212826 -27.4667 8.88179e-016 -1.186 -1.50178 0.247308 -2.08205 -0.126615 8.88179e-016 9.964 0.21338 0.23917 -1.76456 -0.0655853 -2.66454e-015 13.134 -3.25729 0.234433 -1.76303 -0.114611 -8.88178e-016 20.686 -1.69049 1.33053 1.21155 5.58462 0 7.23799 -0.12368 4.29707 -0.57887 4.37631 1.70688 20.075 5.0056 11.3561 4.81002 7.01414 13.6458 -0.047012 -4.84902 -77.7714 -0.650922 14.4386 28.3255 -0.975903 2.28883 0.21527 9.87705 -14.2524 22.1583 -0.530035 10.8316 -3.37239 17.1392 2.14049 0.785995 0.111999 2.58168 -1.59028e-015 0 1.59028e-015 0.3601 -0.878005 4.2331 -1.59028e-015 0 1.59028e-015 0.9571 1.114 1.76948 -1.59028e-015 0 1.59028e-015 4.1246 0.487 4.1451 -1.59028e-015 0 1.59028e-015 3.40521 -1.45401 2.7682 -1.59028e-015 0 1.59028e-015 5.6954 0.209991 2.1184 -1.59028e-015 0 1.59028e-015 3.9766 -1.53999 2.3863 -1.59028e-015 0 1.59028e-015 2.09559 0.65999 -0.38939 -1.59028e-015 0 1.59028e-015 5.0395 -0.089997 2.49707 -1.59028e-015 0 1.59028e-015 3.7921 -1.552 1.4806 -1.59028e-015 0 1.59028e-015 4.9141 -1.269 0.35915 -1.59028e-015 0 1.59028e-015 3.1477 -1.685 0.84623 -1.59028e-015 0 1.59028e-015 -1.70688 20.075 5.0056 -3.92475 0.189963 -13.3441 -13.6458 -0.047012 -4.84902 73.5878 16.5098 -19.662 -28.3255 -0.975903 2.28883 1.58874 5.73377 20.7247 -22.1583 -0.530036 10.8316 5.61722 -12.2343 15.476 -0.785995 0.111999 2.58168 8.82781e-032 3.18055e-015 -1.59028e-015 -0.3601 -0.878005 4.2331 1.59028e-015 0 1.59028e-015 -0.9571 1.114 1.76948 8.82781e-032 3.18055e-015 -1.59028e-015 -4.1246 0.487 4.1451 1.59028e-015 0 1.59028e-015 -3.40521 -1.45401 2.7682 -2.38542e-015 0 -0 -5.6954 0.209991 2.1184 1.59028e-015 0 1.59028e-015 -3.9766 -1.53999 2.3863 -2.38542e-015 0 -0 -2.09559 0.65999 -0.38939 8.82781e-032 3.18055e-015 -1.59028e-015 -5.0395 -0.089997 2.49707 1.59028e-015 0 1.59028e-015 -3.7921 -1.552 1.4806 -2.38542e-015 0 -0 -4.9141 -1.269 0.35915 1.59028e-015 0 1.59028e-015 -3.1477 -1.685 0.84623 -2.38542e-015 0 -0 8.367 -8.2066 0.59823 10.3095 0.199881 0.572414 2.19232 -43.463 -0.493181 2.34343 0.768935 -1.69365 0.733257 -45.8593 -2.64513 -5.23979 -0.0924448 4.34124 -8.367 -8.2066 0.59823 -2.68641 5.59501 -0.3235 -2.19233 -43.463 -0.493108 -3.37568 1.51864 0.426834 -0.733256 -45.8593 -2.64514 -0.721917 -7.48826 -0.817768 
9.58798 106.398 -4.96914 -0.991755 -0.196265 -27.4769 1.77636e-015 -1.186 -1.50178 0.26121 -2.04603 -0.153072 -8.88179e-016 9.964 0.21338 0.264196 -1.7557 -0.0711378 0 13.134 -3.25729 0.259072 -1.75411 -0.120359 -8.88178e-016 20.686 -1.69049 1.34451 1.18313 5.75551 1.77636e-015 7.23799 -0.12368 4.31137 -0.632249 4.5762 1.70688 20.075 5.0056 11.4058 4.80925 7.13048 13.6458 -0.047012 -4.84902 -77.9401 -0.969413 14.2217 28.3255 -0.975903 2.28883 0.252418 9.875 -13.6454 22.1583 -0.530035 10.8316 -3.15241 17.9364 2.10663 0.785995 0.111999 2.58168 7.95139e-016 6.36111e-015 -1.59028e-015 0.3601 -0.878005 4.2331 7.95139e-016 -3.18055e-015 -2.38542e-015 0.9571 1.114 1.76948 7.95139e-016 6.36111e-015 -1.59028e-015 4.1246 0.487 4.1451 7.95139e-016 -3.18055e-015 -2.38542e-015 3.40521 -1.45401 2.7682 7.95139e-016 -6.36111e-015 -2.38542e-015 5.6954 0.209991 2.1184 7.95139e-016 -3.18055e-015 -2.38542e-015 3.9766 -1.53999 2.3863 7.95139e-016 -6.36111e-015 -2.38542e-015 2.09559 0.65999 -0.38939 7.95139e-016 6.36111e-015 -1.59028e-015 5.0395 -0.089997 2.49707 7.95139e-016 -3.18055e-015 -2.38542e-015 3.7921 -1.552 1.4806 7.95139e-016 -6.36111e-015 -2.38542e-015 4.9141 -1.269 0.35915 7.95139e-016 -3.18055e-015 -2.38542e-015 3.1477 -1.685 0.84623 7.95139e-016 -6.36111e-015 -2.38542e-015 -1.70688 20.075 5.0056 -3.89331 0.207171 -13.2911 -13.6458 -0.047012 -4.84902 73.6541 16.3167 -19.5396 -28.3255 -0.975903 2.28883 1.56089 5.71743 20.5293 -22.1583 -0.530036 10.8316 5.18933 -12.2747 15.5633 -0.785995 0.111999 2.58168 -2.38542e-015 0 3.18055e-015 -0.3601 -0.878005 4.2331 7.95139e-016 9.54166e-015 4.77083e-015 -0.9571 1.114 1.76948 -2.38542e-015 0 3.18055e-015 -4.1246 0.487 4.1451 7.95139e-016 9.54166e-015 4.77083e-015 -3.40521 -1.45401 2.7682 -1.76556e-031 6.36111e-015 1.59028e-015 -5.6954 0.209991 2.1184 7.95139e-016 9.54166e-015 4.77083e-015 -3.9766 -1.53999 2.3863 -1.76556e-031 6.36111e-015 1.59028e-015 -2.09559 0.65999 -0.38939 -2.38542e-015 0 3.18055e-015 -5.0395 -0.089997 2.49707 7.95139e-016 9.54166e-015 4.77083e-015 -3.7921 -1.552 1.4806 -1.76556e-031 6.36111e-015 1.59028e-015 -4.9141 -1.269 0.35915 7.95139e-016 9.54166e-015 4.77083e-015 -3.1477 -1.685 0.84623 -1.76556e-031 6.36111e-015 1.59028e-015 8.367 -8.2066 0.59823 10.388 0.211344 0.280176 2.19232 -43.463 -0.493181 2.16434 0.762396 -1.54922 0.733257 -45.8593 -2.64513 -5.15131 -0.114808 4.49943 -8.367 -8.2066 0.59823 -2.78709 5.65832 -0.280665 -2.19233 -43.463 -0.493108 -3.17861 1.37097 0.377115 -0.733256 -45.8593 -2.64514 -0.837144 -7.42231 -0.795658 
